<svg width="30" height="30" viewBox="0 0 513 513" fill="none" xmlns="http://www.w3.org/2000/svg">
<path d="M256.16 112.5C178.22 112.5 98.27 157.61 35.33 247.83C33.5334 250.434 32.5489 253.511 32.5009 256.674C32.4528 259.837 33.3434 262.943 35.06 265.6C83.42 341.3 162.3 400.5 256.16 400.5C349 400.5 429.5 341.12 477.95 265.25C479.627 262.645 480.518 259.613 480.518 256.515C480.518 253.417 479.627 250.385 477.95 247.78C429.39 172.78 348.3 112.5 256.16 112.5Z" stroke="black" stroke-width="32" stroke-linecap="round" stroke-linejoin="round"/>
<path d="M256.5 336.5C300.683 336.5 336.5 300.683 336.5 256.5C336.5 212.317 300.683 176.5 256.5 176.5C212.317 176.5 176.5 212.317 176.5 256.5C176.5 300.683 212.317 336.5 256.5 336.5Z" stroke="black" stroke-width="32" stroke-miterlimit="10"/>
<defs>
</defs>
</svg>
