<svg width="30" height="30" viewBox="0 0 30 30" fill="none" xmlns="http://www.w3.org/2000/svg">
<path d="M25.3125 26.25C25.1894 26.2502 25.0674 26.226 24.9537 26.1789C24.8399 26.1317 24.7367 26.0625 24.6498 25.9752L4.0248 5.35019C3.85641 5.17295 3.76391 4.93693 3.76704 4.69247C3.77017 4.448 3.86868 4.21443 4.04155 4.04156C4.21443 3.86868 4.448 3.77017 4.69247 3.76704C4.93693 3.76391 5.17294 3.85641 5.35019 4.0248L25.9752 24.6498C26.1062 24.7809 26.1954 24.9479 26.2316 25.1297C26.2677 25.3115 26.2491 25.5 26.1782 25.6712C26.1073 25.8425 25.9872 25.9889 25.8331 26.0919C25.679 26.1949 25.4979 26.2499 25.3125 26.25V26.25Z" fill="black"/>
<path d="M14.9801 22.5C12.549 22.5 10.2047 21.7805 8.01212 20.3613C6.01583 19.0723 4.21876 17.226 2.81485 15.0293V15.0246C3.98321 13.3506 5.2629 11.935 6.63751 10.7936C6.64994 10.7832 6.66009 10.7703 6.6673 10.7558C6.67451 10.7413 6.67863 10.7254 6.6794 10.7092C6.68017 10.693 6.67758 10.6769 6.67178 10.6617C6.66598 10.6466 6.6571 10.6328 6.64571 10.6213L5.47852 9.45587C5.45778 9.43496 5.42993 9.42262 5.4005 9.42132C5.37108 9.42002 5.34224 9.42984 5.31974 9.44884C3.85958 10.6793 2.50431 12.1887 1.27208 13.9559C1.06008 14.2601 0.943321 14.6206 0.936644 14.9914C0.929966 15.3622 1.03367 15.7266 1.23458 16.0383C2.78204 18.46 4.77364 20.4996 6.99317 21.9358C9.4922 23.5547 12.1816 24.375 14.9801 24.375C16.4906 24.3703 17.9904 24.1214 19.4215 23.6379C19.4404 23.6315 19.4573 23.6204 19.4707 23.6056C19.4841 23.5908 19.4935 23.5729 19.498 23.5535C19.5025 23.5341 19.502 23.5138 19.4965 23.4946C19.491 23.4755 19.4807 23.458 19.4666 23.444L18.2022 22.1795C18.173 22.1511 18.1371 22.1308 18.0977 22.1205C18.0584 22.1102 18.017 22.1104 17.9777 22.1209C16.9985 22.3731 15.9913 22.5004 14.9801 22.5V22.5Z" fill="black"/>
<path d="M28.7601 13.9805C27.2098 11.5828 25.1982 9.54609 22.9435 8.09004C20.4492 6.47754 17.6953 5.625 14.9801 5.625C13.4856 5.62765 12.0021 5.88179 10.592 6.37676C10.5732 6.3833 10.5564 6.39451 10.5431 6.40934C10.5299 6.42417 10.5206 6.44214 10.5162 6.46154C10.5118 6.48094 10.5124 6.50114 10.518 6.52024C10.5236 6.53934 10.5339 6.55671 10.548 6.5707L11.8107 7.8334C11.8401 7.86229 11.8766 7.88293 11.9165 7.89321C11.9565 7.9035 11.9984 7.90308 12.0381 7.89199C12.9972 7.63253 13.9864 7.50073 14.9801 7.5C17.3642 7.5 19.7015 8.22832 21.9264 9.66797C23.9601 10.9805 25.7783 12.825 27.1857 15C27.1868 15.0013 27.1873 15.003 27.1873 15.0047C27.1873 15.0064 27.1868 15.008 27.1857 15.0094C26.1641 16.6177 24.8963 18.0557 23.4287 19.2709C23.4161 19.2813 23.4059 19.2941 23.3985 19.3087C23.3912 19.3232 23.387 19.3391 23.3862 19.3554C23.3854 19.3716 23.3879 19.3879 23.3937 19.4031C23.3995 19.4183 23.4085 19.4322 23.4199 19.4438L24.5859 20.6092C24.6066 20.63 24.6343 20.6424 24.6635 20.6438C24.6928 20.6452 24.7216 20.6356 24.7441 20.6168C26.3109 19.2976 27.6672 17.7469 28.766 16.0184C28.9602 15.7138 29.0629 15.3598 29.0619 14.9986C29.0608 14.6373 28.9561 14.2839 28.7601 13.9805V13.9805Z" fill="black"/>
<path d="M15 9.375C14.5787 9.37477 14.1586 9.42194 13.7478 9.51563C13.7271 9.51993 13.7079 9.52979 13.6923 9.54414C13.6767 9.55849 13.6653 9.5768 13.6593 9.59712C13.6533 9.61744 13.6529 9.63901 13.6582 9.65954C13.6634 9.68006 13.6742 9.69877 13.6892 9.71367L20.2863 16.309C20.3012 16.3241 20.3199 16.3348 20.3405 16.3401C20.361 16.3453 20.3826 16.345 20.4029 16.3389C20.4232 16.3329 20.4415 16.3215 20.4559 16.3059C20.4702 16.2903 20.4801 16.2711 20.4844 16.2504C20.6722 15.4266 20.672 14.5711 20.4838 13.7473C20.2957 12.9236 19.9244 12.1528 19.3975 11.4923C18.8706 10.8318 18.2016 10.2984 17.4403 9.93187C16.679 9.56532 15.8449 9.37498 15 9.375V9.375Z" fill="black"/>
<path d="M9.7137 13.691C9.69879 13.676 9.68008 13.6652 9.65956 13.6599C9.63904 13.6547 9.61747 13.6551 9.59715 13.6611C9.57682 13.6671 9.55851 13.6785 9.54416 13.6941C9.52981 13.7097 9.51996 13.7289 9.51565 13.7496C9.30316 14.6779 9.32984 15.645 9.5932 16.5602C9.85655 17.4754 10.348 18.3088 11.0214 18.9822C11.6948 19.6556 12.5281 20.147 13.4433 20.4103C14.3585 20.6737 15.3256 20.7004 16.2539 20.4879C16.2747 20.4836 16.2939 20.4737 16.3095 20.4594C16.3251 20.445 16.3365 20.4267 16.3425 20.4064C16.3485 20.3861 16.3489 20.3645 16.3436 20.344C16.3383 20.3235 16.3276 20.3048 16.3125 20.2898L9.7137 13.691Z" fill="black"/>
</svg>